<?xml version="1.0" encoding="UTF-8" standalone="no"?>
<svg
   width="32"
   height="32"
   viewBox="0 0 32 32"
   fill="none"
   version="1.1"
   id="svg4"
   sodipodi:docname=".NET.svg"
   inkscape:version="1.4 (86a8ad7, 2024-10-11)"
   xmlns:inkscape="http://www.inkscape.org/namespaces/inkscape"
   xmlns:sodipodi="http://sodipodi.sourceforge.net/DTD/sodipodi-0.dtd"
   xmlns="http://www.w3.org/2000/svg"
   xmlns:svg="http://www.w3.org/2000/svg">
  <defs
     id="defs4" />
  <sodipodi:namedview
     id="namedview4"
     pagecolor="#ffffff"
     bordercolor="#000000"
     borderopacity="0.25"
     inkscape:showpageshadow="2"
     inkscape:pageopacity="0.0"
     inkscape:pagecheckerboard="0"
     inkscape:deskcolor="#d1d1d1"
     inkscape:clip-to-page="false"
     inkscape:zoom="11.596491"
     inkscape:cx="38.934191"
     inkscape:cy="20.911498"
     inkscape:window-width="1600"
     inkscape:window-height="829"
     inkscape:window-x="-8"
     inkscape:window-y="-8"
     inkscape:window-maximized="1"
     inkscape:current-layer="svg4" />
  <rect
     width="32"
     height="32"
     fill="#512BD4"
     id="rect1"
     style="fill:#1964aa;fill-opacity:1;stroke-width:0.0701754"
     x="0"
     y="0" />
  <path
     d="m 5.7034247,20.444421 c -0.2262597,0 -0.4185825,-0.07537 -0.5769685,-0.226175 -0.1583859,-0.154667 -0.2375789,-0.338316 -0.2375789,-0.550947 0,-0.216562 0.079193,-0.402106 0.2375789,-0.556772 0.158386,-0.154667 0.3507088,-0.232 0.5769685,-0.232 0.2300351,0 0.4242456,0.07733 0.5826316,0.232 0.1621544,0.154666 0.2432351,0.34021 0.2432351,0.556772 0,0.212631 -0.081081,0.39628 -0.2432351,0.550947 -0.158386,0.150807 -0.3525965,0.226175 -0.5826316,0.226175 z"
     fill="#ffffff"
     id="path1"
     style="stroke-width:0.0701754;fill:#e8f2ff;fill-opacity:1" />
  <path
     d="M 14.748562,20.316843 H 13.277825 L 9.4030879,14.20393 C 9.3050528,14.049263 9.22393,13.888772 9.1598598,13.722527 h -0.033965 c 0.030176,0.177894 0.045263,0.558736 0.045263,1.142526 v 5.45179 H 7.8701054 V 12 h 1.5668772 l 3.7447014,5.96793 c 0.158386,0.247509 0.260211,0.417614 0.305474,0.510386 h 0.0226 c -0.03768,-0.220351 -0.05656,-0.593474 -0.05656,-1.119368 V 12 h 1.295369 z"
     fill="#ffffff"
     id="path2"
     style="stroke-width:0.0701754;fill:#e8f2ff;fill-opacity:1" />
  <path
     d="M 21.084141,20.316843 H 16.530597 V 12 h 4.372561 v 1.171579 h -3.026245 v 2.354667 h 2.788701 V 16.692 h -2.788701 v 2.459088 h 3.207228 z"
     fill="#ffffff"
     id="path3"
     style="stroke-width:0.0701754;fill:#e8f2ff;fill-opacity:1" />
  <path
     d="m 27.555579,13.171579 h -2.330526 v 7.145264 H 23.878737 V 13.171579 H 21.553895 V 12 h 6.001684 z"
     fill="#ffffff"
     id="path4"
     style="stroke-width:0.0701754;fill:#e8f2ff;fill-opacity:1" />
</svg>
