<?xml version="1.0" encoding="UTF-8" standalone="no"?>
<!-- Uploaded to: SVG Repo, www.svgrepo.com, Generator: SVG Repo Mixer Tools -->

<svg
   fill="#000000"
   height="40"
   width="40"
   version="1.1"
   id="Layer_1"
   viewBox="0 0 15.5 15.5"
   xml:space="preserve"
   sodipodi:docname="facebook.svg"
   inkscape:version="1.4 (86a8ad7, 2024-10-11)"
   xmlns:inkscape="http://www.inkscape.org/namespaces/inkscape"
   xmlns:sodipodi="http://sodipodi.sourceforge.net/DTD/sodipodi-0.dtd"
   xmlns="http://www.w3.org/2000/svg"
   xmlns:svg="http://www.w3.org/2000/svg"><defs
   id="defs1" /><sodipodi:namedview
   id="namedview1"
   pagecolor="#ffffff"
   bordercolor="#000000"
   borderopacity="0.25"
   inkscape:showpageshadow="2"
   inkscape:pageopacity="0.0"
   inkscape:pagecheckerboard="0"
   inkscape:deskcolor="#d1d1d1"
   inkscape:zoom="3.305"
   inkscape:cx="105.44629"
   inkscape:cy="34.644478"
   inkscape:window-width="1600"
   inkscape:window-height="829"
   inkscape:window-x="-8"
   inkscape:window-y="-8"
   inkscape:window-maximized="1"
   inkscape:current-layer="XMLID_834_" />
<g
   id="XMLID_834_">
	<path
   id="XMLID_835_"
   d="m 4.085125,8.2552999 h 1.69905 V 15.25 c 0,0.1381 0.1119,0.25 0.25,0.25 h 2.8808 c 0.1381,0 0.25,-0.1119 0.25,-0.25 V 8.2882499 h 1.9532 c 0.127,0 0.23385,-0.0953 0.24835,-0.22145 l 0.29665,-2.5751 c 0.0082,-0.07085 -0.0143,-0.1418 -0.0617,-0.19495 -0.04745,-0.0532 -0.11535,-0.08365 -0.1866,-0.08365 h -2.2498 v -1.6142 c 0,-0.4866 0.262,-0.73335 0.7788,-0.73335 0.07365,0 1.471,0 1.471,0 0.1381,0 0.25,-0.11195 0.25,-0.25 V 0.25185005 c 0,-0.1381 -0.1119,-0.25 -0.25,-0.25 h -2.02725 c -0.0143,-7e-4 -0.04605,-0.00185 -0.09285,-0.00185 -0.35175,0 -1.5744,0.06905 -2.5402,0.957550000000003 -1.0701,0.98459985 -0.92135,2.16349985 -0.8858,2.36789985 v 1.8876 h -1.78365 c -0.1381,0 -0.25,0.1119 -0.25,0.25 v 2.5422 c 0,0.1381 0.1119,0.25005 0.25,0.25005 z"
   style="fill:#e8f2ff;fill-opacity:1;stroke-width:0.05" />
</g>
</svg>
