<?xml version="1.0" encoding="UTF-8" standalone="no"?>
<svg
   width="32"
   height="32"
   version="1.1"
   id="svg1"
   sodipodi:docname="github.svg"
   inkscape:version="1.4 (86a8ad7, 2024-10-11)"
   xmlns:inkscape="http://www.inkscape.org/namespaces/inkscape"
   xmlns:sodipodi="http://sodipodi.sourceforge.net/DTD/sodipodi-0.dtd"
   xmlns="http://www.w3.org/2000/svg"
   xmlns:svg="http://www.w3.org/2000/svg">
  <defs
     id="defs1" />
  <sodipodi:namedview
     id="namedview1"
     pagecolor="#ffffff"
     bordercolor="#000000"
     borderopacity="0.25"
     inkscape:showpageshadow="2"
     inkscape:pageopacity="0.0"
     inkscape:pagecheckerboard="0"
     inkscape:deskcolor="#d1d1d1"
     inkscape:zoom="6.8854167"
     inkscape:cx="49.016641"
     inkscape:cy="48"
     inkscape:window-width="1600"
     inkscape:window-height="829"
     inkscape:window-x="-8"
     inkscape:window-y="-8"
     inkscape:window-maximized="1"
     inkscape:current-layer="svg1" />
  <path
     fill-rule="evenodd"
     clip-rule="evenodd"
     d="M 16.158474,0 C 7.303566,0 0.14523449,7.3333025 0.14523449,16.405598 c 0,7.25197 4.58658961,13.390611 10.94940551,15.563268 0.795516,0.163333 1.08691,-0.352998 1.08691,-0.78733 0,-0.380331 -0.02623,-1.683993 -0.02623,-3.04232 -4.4544934,0.977995 -5.3821036,-1.955659 -5.3821036,-1.955659 -0.7158659,-1.901325 -1.7765538,-2.38999 -1.7765538,-2.38999 -1.4579539,-1.004996 0.1062001,-1.004996 0.1062001,-1.004996 1.6172538,0.108666 2.4658696,1.683993 2.4658696,1.683993 1.431404,2.498657 3.7379737,1.792659 4.6659127,1.357994 0.132422,-1.059329 0.556893,-1.792659 1.007587,-2.19999 -3.5527797,-0.380332 -7.2907536,-1.792659 -7.2907536,-8.0943 0,-1.792659 0.6358883,-3.259319 1.6434761,-4.399982 -0.158972,-0.407331 -0.715866,-2.0916574 0.1592998,-4.3459812 0,0 1.3520813,-0.4346648 4.4007397,1.6839926 a 15.395706,15.656601 0 0 1 4.003474,-0.5433308 c 1.352082,0 2.730386,0.1903324 4.003146,0.5433308 3.048986,-2.1186574 4.401067,-1.6839926 4.401067,-1.6839926 0.875166,2.2543238 0.317945,3.9386502 0.158973,4.3459812 1.034138,1.140663 1.643804,2.607323 1.643804,4.399982 0,6.301641 -3.737975,7.686635 -7.317304,8.0943 0.583444,0.515997 1.08691,1.49366 1.08691,3.041987 0,2.19999 -0.02623,3.96565 -0.02623,4.508648 0,0.434665 0.291721,0.950996 1.086909,0.787997 6.36283,-2.173325 10.94942,-8.311632 10.94942,-15.563602 C 32.171385,7.3333025 24.986831,0 16.158474,0 Z"
     fill="#fff"
     id="path1"
     style="fill:#e8f2ff;fill-opacity:1;stroke-width:0.330543" />
</svg>
